<svg xmlns="http://www.w3.org/2000/svg" width="45" height="45" viewBox="0 0 45 45">
  <g id="Groupe_100" data-name="Groupe 100" transform="translate(-917 1667)">
    <path id="Icon_fa-solid-satellite-dish" data-name="Icon fa-solid-satellite-dish" d="M6.8,1.134A1.132,1.132,0,0,1,7.935,0a10.2,10.2,0,0,1,10.2,10.2,1.134,1.134,0,0,1-2.267,0A7.936,7.936,0,0,0,7.935,2.267,1.132,1.132,0,0,1,6.8,1.134ZM2.147,7.815,5.835,11.5,6.841,10.5a1.134,1.134,0,1,1,1.095.84,1.154,1.154,0,0,1-.294-.039L6.635,12.3l3.688,3.688a.984.984,0,0,1-.259,1.64A7.372,7.372,0,0,1,.51,8.073a.986.986,0,0,1,1.64-.259ZM7.935,3.4a6.8,6.8,0,0,1,6.8,6.8,1.134,1.134,0,0,1-2.267,0A4.534,4.534,0,0,0,7.935,5.668a1.134,1.134,0,0,1,0-2.267Z" transform="translate(937.351 -1659.274)" fill="#fff"/>
    <line id="Ligne_10" data-name="Ligne 10" x2="16.691" y2="16.306" transform="translate(928.003 -1648.306)" fill="none" stroke="#fff" stroke-linecap="round" stroke-width="4"/>
    <line id="Ligne_11" data-name="Ligne 11" x1="6.758" y2="6.725" transform="translate(932.911 -1643.515)" fill="none" stroke="#fff" stroke-linecap="round" stroke-width="7"/>
    <rect id="Rectangle_41" data-name="Rectangle 41" width="45" height="45" transform="translate(917 -1667)" fill="none"/>
  </g>
</svg>
