<svg xmlns="http://www.w3.org/2000/svg" width="30" height="29.687" viewBox="0 0 30 29.687">
  <g id="Icon_akar-map" data-name="Icon akar-map" transform="translate(-3 -3.156)">
    <path id="Tracé_50767" data-name="Tracé 50767" d="M12.552,7.185l-4.1-1.37A3,3,0,0,0,4.5,8.663V26.337a3,3,0,0,0,2.053,2.847l6,2a3,3,0,0,0,1.9,0l7.1-2.367a3,3,0,0,1,1.9,0l4.1,1.368A3,3,0,0,0,31.5,27.336V9.663a3,3,0,0,0-2.05-2.847l-6-2a3,3,0,0,0-1.9,0L14.446,7.183a3,3,0,0,1-1.9,0Z" fill="none" stroke="#fff" stroke-linecap="round" stroke-linejoin="round" stroke-width="3"/>
    <path id="Tracé_50768" data-name="Tracé 50768" d="M13.5,7.5v24m9-27v24" fill="none" stroke="#fff" stroke-linejoin="round" stroke-width="3"/>
  </g>
</svg>
