<svg xmlns="http://www.w3.org/2000/svg" width="37.119" height="32.482" viewBox="0 0 37.119 32.482">
  <path id="Icon_fa-solid-triangle-exclamation" data-name="Icon fa-solid-triangle-exclamation" d="M18.561,2.25a2.894,2.894,0,0,1,2.5,1.436L36.723,30.367a2.9,2.9,0,0,1-2.5,4.365H2.9A2.9,2.9,0,0,1,.4,30.367L16.059,3.686A2.894,2.894,0,0,1,18.561,2.25Zm0,9.28a1.736,1.736,0,0,0-1.74,1.74v8.12a1.74,1.74,0,1,0,3.48,0v-8.12A1.736,1.736,0,0,0,18.561,11.53Zm2.32,16.241a2.32,2.32,0,1,0-2.32,2.32A2.32,2.32,0,0,0,20.881,27.771Z" transform="translate(-0.003 -2.25)" fill="#ff5a10"/>
</svg>
