<svg xmlns="http://www.w3.org/2000/svg" width="25.039" height="13.907" viewBox="0 0 25.039 13.907">
  <path id="Icon_fa-solid-arrow-trend-up" data-name="Icon fa-solid-arrow-trend-up" d="M16.688,9.532a1.391,1.391,0,1,1,0-2.782h6.954a1.389,1.389,0,0,1,1.391,1.391V15.1a1.391,1.391,0,0,1-2.782,0V11.5l-7.363,7.358a1.393,1.393,0,0,1-1.969,0L8.343,14.282,2.371,20.25A1.392,1.392,0,1,1,.4,18.281l6.954-6.954a1.393,1.393,0,0,1,1.969,0l4.581,4.581,6.376-6.376Z" transform="translate(0.005 -6.75)" fill="#fff"/>
</svg>
