<svg xmlns="http://www.w3.org/2000/svg" width="50.631" height="58.924" viewBox="0 0 50.631 58.924">
  <g id="Groupe_12" data-name="Groupe 12" transform="translate(0.317 0.317)">
    <path id="Tracé_50738" data-name="Tracé 50738" d="M34.2,24.014l1.138,1.3,7.98-5.7a2.052,2.052,0,0,1,.814,1.955l-8.306,5.863q-2.1,8.676,7.137,12.557c-.075.33-.142.67-.2,1.023l-.059.093q-.345.371-.654.735L35.829,37.7c-2.647-1.008-2.055,5.365-2.28,7.654l-2.391.1-2.39-.1c-.251-2.312.343-8.653-2.28-7.654l-6.22,4.148c-.208-.243-.425-.488-.655-.735l-.06-.093c-.059-.353-.127-.693-.2-1.023q9.235-3.882,7.137-12.557l-8.3-5.863A2.056,2.056,0,0,1,19,19.617l7.98,5.7s.387-.434,1.145-1.3l1.1,0v-1.31h.834v1.31h1.908v-.561H32.8v.56Z" transform="translate(1.714 2.032)" fill="#fff" fill-rule="evenodd"/>
    <path id="Tracé_50739" data-name="Tracé 50739" d="M17.637,20.687c-2.209,3.011-3.732,5.983-3.192,7.3a.085.085,0,0,0,.114.041q2.763-1.329,3.661-6.947a.074.074,0,0,1,.017-.037q3.725-4.092,3.177-7.605a.084.084,0,0,0-.137-.045,11.9,11.9,0,0,0-3.627,7.266.062.062,0,0,1-.013.031" transform="translate(1.097 1.023)" fill="#fff" fill-rule="evenodd"/>
    <path id="Tracé_50740" data-name="Tracé 50740" d="M40.943,39.613c-1.016,3.594-2.422,6.623-3.791,7a.086.086,0,0,1-.1-.064q-.652-3,3.227-7.159a.072.072,0,0,0,.019-.036q.936-5.455,4.043-7.184a.084.084,0,0,1,.12.08,11.9,11.9,0,0,1-3.5,7.33.075.075,0,0,0-.017.029" transform="translate(4.749 4.058)" fill="#fff" fill-rule="evenodd"/>
    <path id="Tracé_50741" data-name="Tracé 50741" d="M18.8,39.613c1.015,3.594,2.422,6.623,3.791,7a.086.086,0,0,0,.1-.064q.652-3-3.227-7.159a.072.072,0,0,1-.019-.036q-.936-5.455-4.043-7.184a.083.083,0,0,0-.12.08,11.9,11.9,0,0,0,3.5,7.33.075.075,0,0,1,.017.029" transform="translate(1.251 4.058)" fill="#fff" fill-rule="evenodd"/>
    <path id="Tracé_50742" data-name="Tracé 50742" d="M42.061,20.687c2.209,3.011,3.733,5.983,3.192,7.3a.085.085,0,0,1-.114.041q-2.763-1.329-3.66-6.947a.075.075,0,0,0-.019-.037q-3.725-4.092-3.177-7.605a.084.084,0,0,1,.137-.045,11.9,11.9,0,0,1,3.627,7.266.062.062,0,0,0,.013.031" transform="translate(4.952 1.023)" fill="#fff" fill-rule="evenodd"/>
    <path id="Tracé_50743" data-name="Tracé 50743" d="M15.025,58.394h0C.886,49.712-2.327,30.209,6.355,16.069S33.884-4.028,48.023,4.654a31.531,31.531,0,1,0-33,53.74" transform="translate(0 0)" fill="#00aeff" stroke="#01affd" stroke-width="0.5"/>
  </g>
</svg>
