<?xml version="1.0" standalone="no"?>
<!DOCTYPE svg PUBLIC "-//W3C//DTD SVG 20010904//EN"
 "http://www.w3.org/TR/2001/REC-SVG-20010904/DTD/svg10.dtd">
<svg version="1.0" xmlns="http://www.w3.org/2000/svg"
 width="251.000000pt" height="251.000000pt" viewBox="0 0 251.000000 251.000000"
 preserveAspectRatio="xMidYMid meet">

<g transform="translate(0.000000,251.000000) scale(0.100000,-0.100000)"
fill="#000000" stroke="none">
<path d="M942 1755 c-40 -49 -78 -126 -87 -180 -4 -22 -22 -62 -40 -90 -52
-80 -85 -152 -85 -185 0 -16 4 -30 8 -30 31 0 103 126 118 204 4 22 24 62 46
90 47 62 80 147 76 195 l-3 36 -33 -40z"/>
<path d="M1720 1750 c0 -52 39 -143 89 -204 17 -21 31 -44 31 -51 0 -7 9 -43
21 -80 19 -62 76 -145 100 -145 30 0 -10 117 -72 206 -17 25 -38 71 -46 102
-18 69 -52 136 -92 182 l-30 35 -1 -45z"/>
<path d="M902 1518 c-7 -7 -12 -23 -12 -37 1 -22 24 -42 145 -126 101 -69 147
-108 152 -125 16 -53 7 -163 -16 -217 -27 -62 -103 -137 -184 -183 -60 -34
-66 -44 -43 -75 13 -19 19 -16 131 59 101 67 121 77 140 68 30 -14 45 -78 45
-186 l0 -86 85 0 c61 0 85 4 85 13 6 166 30 267 63 267 6 0 41 -19 77 -43 177
-115 169 -112 185 -91 19 26 19 43 -2 51 -51 18 -153 95 -184 139 -58 81 -75
142 -64 239 l6 64 91 63 c222 154 226 159 196 201 -12 16 -27 7 -153 -83 -77
-55 -142 -100 -146 -100 -3 0 -14 9 -24 20 -10 11 -29 20 -42 20 -12 0 -23 5
-23 10 0 6 -7 10 -15 10 -8 0 -15 -4 -15 -10 0 -5 -16 -10 -35 -10 -31 0 -35
3 -35 25 0 16 -6 25 -15 25 -9 0 -15 -9 -15 -25 0 -17 -6 -25 -17 -25 -9 0
-27 -10 -40 -22 l-23 -22 -83 57 c-45 32 -109 77 -143 102 -46 33 -64 41 -72
33z"/>
<path d="M774 958 c8 -50 46 -129 87 -180 16 -20 41 -70 55 -110 29 -82 68
-150 96 -167 16 -10 18 -8 18 26 0 47 -29 112 -79 178 -21 27 -44 73 -51 100
-18 68 -46 124 -83 163 -41 43 -51 41 -43 -10z"/>
<path d="M1873 956 c-34 -39 -83 -148 -83 -184 0 -8 -20 -39 -44 -70 -53 -67
-76 -118 -76 -167 0 -41 8 -44 39 -11 22 23 91 170 91 193 0 7 16 34 37 60 42
56 79 132 88 186 9 49 -4 48 -52 -7z"/>
</g>
</svg>
