<svg xmlns="http://www.w3.org/2000/svg" width="25.528" height="34.931" viewBox="0 0 25.528 34.931">
  <g id="Groupe_21" data-name="Groupe 21" transform="translate(0.035 0.035)">
    <path id="Icon_fa-solid-arrow-turn-up" data-name="Icon fa-solid-arrow-turn-up" d="M1.585,22.183a1.585,1.585,0,0,0,0,3.169H6.338A4.755,4.755,0,0,0,11.092,20.6V5.411l3.635,3.635A1.586,1.586,0,1,0,16.97,6.8L10.632.464a1.587,1.587,0,0,0-2.243,0L2.05,6.8A1.586,1.586,0,0,0,4.293,9.046l3.63-3.635V20.6a1.583,1.583,0,0,1-1.585,1.585Z" transform="translate(21.922 25.353) rotate(180)" fill="#fff" stroke="#000" stroke-width="0.07"/>
    <path id="Icon_fa-solid-arrow-right-from-bracket" data-name="Icon fa-solid-arrow-right-from-bracket" d="M7.923,3.169A1.585,1.585,0,1,0,7.923,0H4.754A4.755,4.755,0,0,0,0,4.754V20.7a4.755,4.755,0,0,0,4.754,4.754H7.923a1.585,1.585,0,1,0,0-3.169H4.754A1.583,1.583,0,0,1,3.169,20.7V4.754A1.583,1.583,0,0,1,4.754,3.169Z" transform="translate(0 34.86) rotate(-90)" fill="#fff" stroke="#000" stroke-width="0.07"/>
  </g>
</svg>
