<svg xmlns="http://www.w3.org/2000/svg" width="23.91" height="27.42" viewBox="0 0 23.91 27.42">
  <path id="Icon_fa-solid-arrow-right-from-bracket" data-name="Icon fa-solid-arrow-right-from-bracket" d="M26.745,13.122a1.705,1.705,0,0,0,0-2.411L19.934,3.9a1.7,1.7,0,1,0-2.411,2.411l3.906,3.906H10.217a1.7,1.7,0,1,0,0,3.406H21.429l-3.906,3.906a1.7,1.7,0,0,0,2.411,2.411l6.811-6.811ZM8.514,3.406A1.7,1.7,0,1,0,8.514,0H5.109A5.11,5.11,0,0,0,0,5.109V18.731A5.11,5.11,0,0,0,5.109,23.84H8.514a1.7,1.7,0,1,0,0-3.406H5.109a1.7,1.7,0,0,1-1.7-1.7V5.109a1.7,1.7,0,0,1,1.7-1.7Z" transform="translate(0.035 27.385) rotate(-90)" fill="#fff" stroke="#000" stroke-width="0.07"/>
</svg>
